<svg width="18" height="22" viewBox="0 0 18 22" fill="currentColor" xmlns="http://www.w3.org/2000/svg">
<path d="M13.2338 0H13.3903C13.5158 1.55149 12.9236 2.71075 12.2039 3.55026C11.4977 4.38396 10.5307 5.19255 8.96668 5.06986C8.86235 3.5406 9.45551 2.46731 10.1743 1.62974C10.8408 0.849163 12.0629 0.154569 13.2338 0ZM17.9684 16.1486V16.1921C17.5288 17.5233 16.9019 18.6642 16.1368 19.723C15.4383 20.6842 14.5824 21.9778 13.0541 21.9778C11.7335 21.9778 10.8563 21.1286 9.50284 21.1054C8.07115 21.0822 7.28381 21.8155 5.97481 22H5.52849C4.56726 21.8609 3.79152 21.0996 3.22637 20.4137C1.55993 18.3869 0.272175 15.7689 0.0325928 12.4187V11.4342C0.134029 9.03649 1.29909 7.08699 2.84768 6.14219C3.66496 5.63984 4.78849 5.21187 6.03953 5.40315C6.57569 5.48623 7.12345 5.66978 7.60358 5.8514C8.05859 6.02626 8.6276 6.33636 9.16665 6.31994C9.53182 6.30931 9.89506 6.119 10.2631 5.98472C11.3412 5.5954 12.3981 5.14908 13.7912 5.35871C15.4653 5.61182 16.6536 6.35568 17.3878 7.50336C15.9716 8.40469 14.8519 9.76296 15.0432 12.0825C15.2132 14.1894 16.4382 15.4221 17.9684 16.1486Z"/>
</svg>
