<svg width="24" height="21" viewBox="0 0 24 21" fill="currentColor" xmlns="http://www.w3.org/2000/svg">
<path d="M20.2061 0.970703C22.3194 1.07794 24 2.82578 24 4.96582V16.9658C24 19.1059 22.3194 20.8537 20.2061 20.9609L20 20.9658H4C1.85996 20.9658 0.112115 19.2853 0.00488281 17.1719L0 16.9658V4.96582C0 2.75668 1.79086 0.96582 4 0.96582H20L20.2061 0.970703ZM2 7.96582V16.9658C2 18.0704 2.89543 18.9658 4 18.9658H20C21.1046 18.9658 22 18.0704 22 16.9658V7.96582H2ZM7 11.9658C8.10457 11.9658 9 12.8613 9 13.9658C9 15.0704 8.10457 15.9658 7 15.9658C5.89543 15.9658 5 15.0704 5 13.9658C5 12.8613 5.89543 11.9658 7 11.9658ZM4 2.96582C2.89543 2.96582 2 3.86125 2 4.96582V5.96582H22V4.96582C22 3.93017 21.2128 3.07883 20.2041 2.97656L20 2.96582H4Z" />
</svg>
