<svg width="13" height="21" viewBox="0 0 13 21" fill="currentColor" xmlns="http://www.w3.org/2000/svg">
<path d="M0.398 1.292C0.191 1.502 0.076 1.784 0.076 2.078C0.076 2.372 0.191 2.654 0.398 2.863L9.42 10.966L0.398 19.068C0.191 19.278 0.076 19.56 0.076 19.854C0.076 20.148 0.191 20.431 0.398 20.64C0.499 20.743 0.621 20.825 0.754 20.881C0.888 20.937 1.031 20.966 1.176 20.966C1.321 20.966 1.464 20.937 1.598 20.881C1.731 20.825 1.853 20.743 1.954 20.64L11.754 11.751C11.959 11.541 12.075 11.259 12.075 10.966C12.075 10.672 11.959 10.39 11.754 10.181L1.954 1.292C1.853 1.188 1.731 1.106 1.598 1.051C1.464 0.995 1.321 0.966 1.176 0.966C1.031 0.966 0.888 0.995 0.754 1.051C0.621 1.106 0.499 1.188 0.398 1.292Z" />
</svg>
