<svg width="18" height="18" viewBox="0 0 18 18" fill="currentColor" xmlns="http://www.w3.org/2000/svg">
<path d="M16.3905 0.290956L9.0019 7.67954L1.61331 0.290956C1.43561 0.128339 1.20201 0.0405543 0.961189 0.0458903C0.720367 0.0512262 0.490889 0.149271 0.32056 0.3196C0.150231 0.489929 0.0521855 0.719407 0.0468496 0.96023C0.0415136 1.20105 0.129298 1.43465 0.291915 1.61235L7.67675 9.00094L0.290041 16.3876C0.199797 16.4736 0.127656 16.5768 0.0778599 16.6911C0.0280633 16.8054 0.00161554 16.9285 7.17273e-05 17.0531C-0.00147208 17.1778 0.0219192 17.3015 0.0688702 17.417C0.115821 17.5324 0.185384 17.6374 0.273471 17.7256C0.361557 17.8138 0.46639 17.8835 0.581805 17.9306C0.697221 17.9777 0.82089 18.0013 0.945544 17.9999C1.0702 17.9986 1.19332 17.9723 1.30768 17.9227C1.42203 17.873 1.52531 17.801 1.61144 17.7109L9.0019 10.3242L16.3905 17.7128C16.5682 17.8754 16.8018 17.9632 17.0426 17.9579C17.2834 17.9525 17.5129 17.8545 17.6832 17.6841C17.8536 17.5138 17.9516 17.2843 17.9569 17.0435C17.9623 16.8027 17.8745 16.5691 17.7119 16.3914L10.3233 9.00281L17.7119 1.61235C17.8021 1.52635 17.8743 1.42318 17.9241 1.30889C17.9739 1.19461 18.0003 1.07152 18.0018 0.94687C18.0034 0.822218 17.98 0.698515 17.9331 0.583033C17.8861 0.467551 17.8165 0.36262 17.7285 0.274408C17.6404 0.186196 17.5355 0.116484 17.4201 0.0693699C17.3047 0.0222553 17.181 -0.00131087 17.0564 5.62491e-05C16.9317 0.00142337 16.8086 0.0276964 16.6942 0.077331C16.5799 0.126966 16.4766 0.19896 16.3905 0.289082V0.290956Z" />
</svg>
