<svg width="22" height="22" viewBox="0 0 22 22" fill="currentColor" xmlns="http://www.w3.org/2000/svg">
<path d="M10.1922 0.0429706C6.6 0.322267 3.40742 2.30742 1.54688 5.41406C0.137503 7.76875 -0.322263 10.682 0.283596 13.4063C1.11719 17.1531 3.87578 20.1953 7.54102 21.4199C8.08242 21.6004 9.00196 21.8281 9.19102 21.8281H9.28125V18.0039V14.1797H7.88477H6.48828V12.5898V11H7.88477H9.28125V9.47891C9.28125 8.31445 9.29844 7.87188 9.34571 7.57969C9.65938 5.76211 10.8367 4.60195 12.6242 4.33985C13.0926 4.2711 14.4762 4.30547 15.2883 4.4043L15.8984 4.48164V5.84375V7.20586L14.9875 7.23164C13.9563 7.25742 13.7414 7.30039 13.3762 7.54961C13.2516 7.63125 13.0926 7.79024 13.0195 7.89766C12.7746 8.26719 12.7531 8.40899 12.7316 9.7625L12.7102 11H14.2398C15.5848 11 15.7695 11.0086 15.7695 11.0645C15.7695 11.1375 15.357 13.866 15.3141 14.0637L15.2883 14.1797H14.0035H12.7188V18.0039V21.8281H12.809C12.998 21.8281 13.9176 21.6004 14.459 21.4199C16.6891 20.6766 18.5367 19.3145 19.9289 17.3895C21.7336 14.893 22.391 11.6574 21.7164 8.59375C20.8957 4.87695 18.0941 1.7832 14.4633 0.58008C13.1227 0.137502 11.5543 -0.0601544 10.1922 0.0429706Z"/>
</svg>
