<svg width="20" height="20" viewBox="0 0 20 20" fill="currentColor" xmlns="http://www.w3.org/2000/svg">
<path d="M0.624395 3.53201H10.131C10.4175 4.83617 11.5822 5.81527 12.9711 5.81527C14.3601 5.81527 15.5248 4.83621 15.8113 3.53201H19.3562C19.7011 3.53201 19.9806 3.25244 19.9806 2.90761C19.9806 2.56279 19.7011 2.28322 19.3562 2.28322H15.811C15.5239 0.979715 14.3577 0 12.9711 0C11.5839 0 10.4182 0.979559 10.1312 2.28322H0.624395C0.279573 2.28322 0 2.56279 0 2.90761C0 3.25244 0.279573 3.53201 0.624395 3.53201ZM11.3124 2.90925L11.3124 2.90254C11.3151 1.99065 12.0592 1.24883 12.9711 1.24883C13.8818 1.24883 14.6259 1.98964 14.6299 2.9011L14.63 2.91027C14.6285 3.82372 13.8849 4.56651 12.9711 4.56651C12.0577 4.56651 11.3144 3.82446 11.3123 2.91155L11.3124 2.90925ZM19.3562 16.468H15.811C15.5239 15.1645 14.3577 14.1847 12.9711 14.1847C11.5839 14.1847 10.4182 15.1643 10.1312 16.468H0.624395C0.279573 16.468 0 16.7475 0 17.0923C0 17.4372 0.279573 17.7167 0.624395 17.7167H10.131C10.4175 19.0209 11.5822 20 12.9711 20C14.3601 20 15.5248 19.0209 15.8113 17.7167H19.3562C19.7011 17.7167 19.9806 17.4372 19.9806 17.0923C19.9806 16.7475 19.7011 16.468 19.3562 16.468ZM12.9711 18.7512C12.0577 18.7512 11.3144 18.0092 11.3123 17.0963L11.3124 17.094L11.3124 17.0873C11.3151 16.1754 12.0592 15.4335 12.9711 15.4335C13.8818 15.4335 14.6259 16.1743 14.6299 17.0858L14.63 17.0949C14.6286 18.0085 13.885 18.7512 12.9711 18.7512ZM19.3562 9.37561H9.84964C9.56312 8.07144 8.39847 7.09239 7.0095 7.09239C5.62053 7.09239 4.45588 8.07144 4.16936 9.37561H0.624395C0.279573 9.37561 0 9.65518 0 10C0 10.3449 0.279573 10.6244 0.624395 10.6244H4.16967C4.45678 11.9279 5.62299 12.9076 7.0095 12.9076C8.39675 12.9076 9.56246 11.928 9.8494 10.6244H19.3562C19.7011 10.6244 19.9806 10.3449 19.9806 10C19.9806 9.65518 19.7011 9.37561 19.3562 9.37561ZM8.66828 9.99836L8.66824 10.0051C8.66551 10.917 7.92143 11.6588 7.0095 11.6588C6.09886 11.6588 5.35473 10.918 5.35079 10.0066L5.35068 9.99742C5.35204 9.08386 6.09566 8.34118 7.0095 8.34118C7.92291 8.34118 8.66625 9.08319 8.66832 9.99614L8.66828 9.99836Z" />
</svg>
