<svg width="22" height="22" viewBox="0 0 22 22" fill="none" xmlns="http://www.w3.org/2000/svg">
<path d="M21.5326 11.2474C21.5326 10.5233 21.4684 9.83577 21.3584 9.16661H11.0001V13.3008H16.9309C16.6651 14.6574 15.8859 15.8033 14.7309 16.5824V19.3324H18.2693C20.3409 17.4166 21.5326 14.5933 21.5326 11.2474Z" fill="#4285F4"/>
<path d="M11.0001 21.9999C13.9701 21.9999 16.4543 21.0099 18.2693 19.3324L14.7309 16.5824C13.7409 17.2424 12.4851 17.6457 11.0001 17.6457C8.1309 17.6457 5.70173 15.7115 4.8309 13.099H1.18256V15.9316C2.9884 19.5249 6.7009 21.9999 11.0001 21.9999Z" fill="#34A853"/>
<path d="M4.8309 13.099C4.60173 12.439 4.4825 11.7333 4.4825 10.9999C4.4825 10.2666 4.61083 9.56076 4.83083 8.90076V6.06826H1.1825C0.430833 7.55326 0 9.2216 0 10.9999C0 12.7783 0.430895 14.4466 1.18256 15.9316L4.8309 13.099Z" fill="#FBBC05"/>
<path d="M11.0001 4.35417C12.6226 4.35417 14.0709 4.91334 15.2167 6.00417L18.3517 2.86917C16.4542 1.09083 13.9701 0 11.0001 0C6.7009 0 2.98833 2.47493 1.1825 6.06826L4.83083 8.90076C5.70167 6.28826 8.1309 4.35417 11.0001 4.35417Z" fill="#EA4335"/>
</svg>
