<svg width="20" height="20" viewBox="0 0 20 20" fill="currentColor" xmlns="http://www.w3.org/2000/svg">
<path d="M17.0717 2.92881C13.1664 -0.976054 6.83455 -0.976489 2.92881 2.92881C-0.976489 6.83412 -0.976054 13.166 2.92881 17.0717C6.83412 20.9762 13.166 20.9766 17.0717 17.0717C20.9766 13.166 20.9762 6.83455 17.0717 2.92881ZM11.3042 14.3482C11.3042 14.6941 11.1668 15.0259 10.9222 15.2705C10.6776 15.5151 10.3458 15.6526 9.99984 15.6526C9.6539 15.6526 9.32212 15.5151 9.07751 15.2705C8.83289 15.0259 8.69546 14.6941 8.69546 14.3482V9.13069C8.69546 8.78475 8.83289 8.45297 9.07751 8.20836C9.32212 7.96374 9.6539 7.82631 9.99984 7.82631C10.3458 7.82631 10.6776 7.96374 10.9222 8.20836C11.1668 8.45297 11.3042 8.78475 11.3042 9.13069V14.3482ZM9.97679 6.90107C9.22547 6.90107 8.72459 6.36889 8.74025 5.71192C8.72459 5.02321 9.22547 4.50711 9.99201 4.50711C10.759 4.50711 11.2442 5.02364 11.2603 5.71192C11.2599 6.36889 10.7594 6.90107 9.97679 6.90107Z"/>
</svg>
