<svg width="25" height="25" viewBox="0 0 25 25" fill="currentColor" xmlns="http://www.w3.org/2000/svg">
<path d="M17.4751 12.2599C17.4751 14.9547 15.2906 17.1391 12.596 17.1391C9.90126 17.1391 7.7168 14.9547 7.7168 12.2599C7.7168 9.56519 9.90126 7.38086 12.596 7.38086C15.2906 7.38086 17.4751 9.56519 17.4751 12.2599ZM24.0075 3.62696C23.7729 2.99146 23.3987 2.41623 22.9125 1.94391C22.4403 1.45774 21.8655 1.08357 21.2295 0.849082C20.7138 0.648728 19.9389 0.410286 18.5119 0.345338C16.9681 0.274923 16.5052 0.259766 12.5969 0.259766C8.68824 0.259766 8.22542 0.274546 6.68191 0.344947C5.25487 0.410287 4.47968 0.648728 3.96429 0.849082C3.32837 1.08357 2.75314 1.45774 2.28123 1.94391C1.79507 2.41623 1.4209 2.99105 1.186 3.62696C0.985642 4.14277 0.7472 4.91796 0.682252 6.345C0.611837 7.88851 0.59668 8.35133 0.59668 12.26C0.59668 16.1683 0.611837 16.6312 0.682252 18.175C0.7472 19.602 0.985642 20.3769 1.186 20.8926C1.4209 21.5286 1.79465 22.1034 2.28082 22.5756C2.75314 23.0618 3.32796 23.4361 3.96387 23.6706C4.47968 23.8712 5.25487 24.1098 6.68191 24.1746C8.22542 24.2451 8.68782 24.2598 12.5965 24.2598C16.5055 24.2598 16.9685 24.2451 18.5114 24.1746C19.9386 24.1098 20.7138 23.8712 21.2295 23.6706C22.5061 23.1781 23.515 22.1692 24.0075 20.8926C24.2079 20.3769 24.4462 19.602 24.5115 18.175C24.582 16.6312 24.5967 16.1683 24.5967 12.26C24.5967 8.35133 24.582 7.88851 24.5115 6.345C24.4467 4.91796 24.2081 4.14277 24.0075 3.62696ZM12.5969 19.7759C8.4455 19.7759 5.08023 16.4111 5.08023 12.2596C5.08023 8.10817 8.4455 4.74332 12.5969 4.74332C16.7478 4.74332 20.1133 8.10817 20.1133 12.2596C20.1133 16.4111 16.7478 19.7759 12.5969 19.7759ZM20.4104 6.20266C19.4403 6.20266 18.6538 5.41629 18.6538 4.44619C18.6538 3.47609 19.4403 2.68958 20.4104 2.68958C21.3805 2.68958 22.1668 3.47609 22.1668 4.44619C22.1666 5.41629 21.3805 6.20266 20.4104 6.20266Z" />
</svg>
