<svg width="294" height="55" viewBox="0 0 294 55" fill="currentColor" xmlns="http://www.w3.org/2000/svg">
<g clip-path="url(#clip0_243_13995)">
<path fill-rule="evenodd" clip-rule="evenodd" d="M28.97 43.51L31 55V0L28.97 11.49L24.1 0.69L25 12.29L17.55 2.72L21.34 13.85L11.67 6L18.15 16.11L6.76 10.35L15.62 18.92L3.07 15.57L13.85 22.18L0.77 21.38L12.94 25.69L0 27.5L12.95 29.3L0.78 33.62L13.86 32.82L3.08 39.43L15.63 36.07L6.77 44.64L18.16 38.89L11.68 49L21.34 41.14L17.55 52.27L25 42.7L24.1 54.3L28.96 43.5L28.97 43.51Z" />
<path d="M54.5097 20.1C55.9297 19.47 57.5997 19.15 59.5097 19.15C61.8897 19.15 63.9197 19.64 65.5897 20.61C67.2697 21.59 68.3397 22.97 68.8097 24.77H77.8397C77.4797 22.48 76.4597 20.47 74.7897 18.75C73.1097 17.03 70.9597 15.68 68.3297 14.71C65.6997 13.73 62.7597 13.25 59.5197 13.25C55.8397 13.25 52.6097 13.84 49.8197 15.02C47.0297 16.2 44.8497 17.83 43.2797 19.92C41.7097 22.01 40.9297 24.43 40.9297 27.19C40.9297 29.95 41.7097 32.33 43.2797 34.44C44.8497 36.55 47.0297 38.18 49.8197 39.34C52.6097 40.5 55.8497 41.08 59.5197 41.08C62.7597 41.08 65.6997 40.6 68.3297 39.64C70.9597 38.68 73.1097 37.33 74.7897 35.6C76.4697 33.87 77.4797 31.87 77.8397 29.61H68.8097C68.3797 31.28 67.3197 32.63 65.6497 33.65C63.9697 34.67 61.9297 35.18 59.5097 35.18C57.5997 35.18 55.9297 34.86 54.5097 34.23C53.0897 33.6 51.9997 32.68 51.2397 31.49C50.4797 30.3 50.0997 28.86 50.0997 27.19C50.0997 25.52 50.4797 24.04 51.2397 22.85C51.9997 21.66 53.0897 20.74 54.5097 20.11V20.1Z" />
<path d="M79.4893 19.1497H91.7093V39.6397H100.739V19.1497H112.959V13.1997H79.4893V19.1497Z" />
<path d="M144.15 13.2L143.37 19.05C141.82 16.97 139.89 15.36 137.58 14.22C135.26 13.07 132.65 12.5 129.77 12.5C126.89 12.5 124.13 13.08 121.82 14.24C119.51 15.4 117.72 17.03 116.44 19.12C115.16 21.21 114.52 23.65 114.52 26.44C114.52 29.23 115.16 31.62 116.44 33.71C117.72 35.8 119.51 37.43 121.82 38.59C124.13 39.75 126.78 40.33 129.77 40.33C132.76 40.33 135.26 39.76 137.58 38.61C139.9 37.47 141.83 35.85 143.36 33.76L144.15 39.63H153.5L151.72 26.43L153.5 13.19H144.15V13.2ZM141.07 30.53C139.92 31.71 138.59 32.63 137.1 33.29C135.6 33.96 134.01 34.29 132.32 34.29C130.63 34.29 129.13 33.96 127.83 33.29C126.53 32.62 125.51 31.7 124.78 30.53C124.04 29.35 123.67 27.99 123.67 26.44C123.67 24.89 124.04 23.52 124.78 22.33C125.52 21.14 126.54 20.21 127.83 19.54C129.13 18.87 130.62 18.54 132.32 18.54C134.02 18.54 135.61 18.87 137.1 19.54C138.6 20.21 139.92 21.14 141.07 22.33C142.22 23.52 143.12 24.89 143.77 26.44C143.12 27.99 142.22 29.35 141.07 30.53Z" />
<path d="M185.35 23.2397H168.54V13.1997H159.56V39.6397H168.54V29.0897H185.35V39.6397H194.32V13.1997H185.35V23.2397Z" />
<path d="M235.25 13.1997H226.22V33.7897H210.16V13.1997H201.13V39.6397H233.14V46.1397H240.92V33.7897H235.25V13.1997Z" />
<path d="M245.68 12.9199V39.6399H254.71V12.9199L250.17 13.6699L245.68 12.9199Z" />
<path d="M254.17 3.2399C253.16 2.5099 251.83 2.1499 250.17 2.1499C248.51 2.1499 247.22 2.5099 246.2 3.2399C245.17 3.9699 244.66 4.9499 244.66 6.1899C244.66 7.4299 245.17 8.3699 246.2 9.0899C247.23 9.8199 248.55 10.1799 250.17 10.1799C251.79 10.1799 253.16 9.8199 254.17 9.0899C255.18 8.3599 255.69 7.3899 255.69 6.1899C255.69 4.9899 255.18 3.9699 254.17 3.2399Z" />
<path d="M272.12 13.1997C269.78 13.1997 267.72 13.5597 265.96 14.2897C264.19 15.0197 262.82 16.0297 261.82 17.3097C260.83 18.5997 260.33 20.0897 260.33 21.7897C260.33 23.4897 260.82 24.9897 261.82 26.2697C262.81 27.5597 264.19 28.5497 265.96 29.2397C266.7 29.5297 267.5 29.7497 268.34 29.9197L259.64 39.6297H269.91L277.8 30.4797H284.78V39.6297H293.81V13.1997H272.13H272.12ZM274.28 25.4197C272.77 25.4197 271.59 25.0997 270.74 24.4697C269.89 23.8397 269.47 22.9797 269.47 21.8897C269.47 20.7997 269.89 19.9597 270.74 19.3597C271.59 18.7597 272.77 18.4497 274.28 18.4497H284.77V25.4197H274.28Z" />
</g>
<defs>
<clipPath id="clip0_243_13995">
<rect width="293.8" height="55" fill="white"/>
</clipPath>
</defs>
</svg>
