<svg width="24" height="20" viewBox="0 0 24 20" fill="currentColor" xmlns="http://www.w3.org/2000/svg">
<path d="M22.8333 7.56547L18.9558 4.24061C18.7672 4.08448 18.5147 3.99808 18.2526 4.00003C17.9905 4.00199 17.7398 4.09213 17.5545 4.25105C17.3691 4.40997 17.264 4.62495 17.2617 4.84969C17.2594 5.07443 17.3602 5.29095 17.5423 5.45261L21.4198 8.77747C21.535 8.87821 21.6357 8.99044 21.7197 9.11175C21.7047 9.11175 21.6927 9.1049 21.6777 9.1049L5.99962 9.13232C5.73451 9.13232 5.48025 9.22263 5.29278 9.38338C5.10532 9.54412 5 9.76214 5 9.98947C5 10.2168 5.10532 10.4348 5.29278 10.5956C5.48025 10.7563 5.73451 10.8466 5.99962 10.8466L21.6717 10.8192C21.6997 10.8192 21.7227 10.8072 21.7497 10.8055C21.661 10.9505 21.5486 11.0838 21.4158 11.2015L17.5383 14.5263C17.4428 14.6054 17.3667 14.7 17.3143 14.8045C17.2619 14.9091 17.2343 15.0216 17.2331 15.1354C17.232 15.2492 17.2573 15.3621 17.3075 15.4674C17.3578 15.5728 17.432 15.6685 17.5259 15.7489C17.6198 15.8294 17.7314 15.8931 17.8542 15.9362C17.9771 15.9793 18.1087 16.001 18.2414 16C18.3742 15.999 18.5053 15.9753 18.6273 15.9304C18.7492 15.8855 18.8595 15.8202 18.9518 15.7383L22.8293 12.4135C23.5789 11.7705 24 10.8986 24 9.98947C24 9.08033 23.5789 8.20842 22.8293 7.56547H22.8333ZM8.00153 19C8.00153 18.4477 7.55384 18 7.00158 18H5.00079C3.34354 18 2.00007 16.6566 2.00005 14.9993L1.99993 5.00012C1.99991 3.34321 3.34309 2.00001 5 2.00001H7.00008C7.55236 2.00001 8.00008 1.5523 8.00008 1.00001C8.00008 0.447728 7.55237 1.2175e-05 7.00008 1.0282e-05L4.0001 0C1.79098 -7.57098e-06 0.000124583 1.79083 0.000105214 3.99996L1.56433e-10 15.9999C-1.93695e-05 18.2091 1.79088 20 4.00005 20L7.0016 19.9999C7.55385 19.9999 8.00153 19.5522 8.00153 19Z" />
</svg>
