<svg width="31" height="55" viewBox="0 0 31 55" fill="currentColor" xmlns="http://www.w3.org/2000/svg">
<path d="M28.9661 43.5137L31 55V0L28.9661 11.4863L24.1018 0.689484L25.0001 12.2893L17.5496 2.72334L21.3352 13.855L11.6718 5.99963L18.1547 16.1049L6.76323 10.354L15.6184 18.9263L3.06996 15.5682L13.8534 22.1775L0.777237 21.3807L12.9482 25.6956L0 27.4999L12.9482 29.3042L0.777237 33.6193L13.8534 32.8225L3.06996 39.4318L15.6184 36.0735L6.76321 44.6459L18.1547 38.895L11.6718 49.0003L21.3352 41.145L17.5496 52.2766L25.0001 42.7106L24.1018 54.3103L28.9661 43.5137Z"/>
</svg>
