<svg width="24" height="21" viewBox="0 0 24 21" fill="currentColor" xmlns="http://www.w3.org/2000/svg">
  <path d="M20.1963 0.970703C22.3097 1.07794 23.9902 2.82578 23.9902 4.96582V16.9658C23.9902 19.1059 22.3097 20.8537 20.1963 20.9609L19.9902 20.9658H3.99023C1.8502 20.9658 0.102349 19.2853 -0.00488281 17.1719L-0.00976562 16.9658V4.96582C-0.00976562 2.75668 1.7811 0.96582 3.99023 0.96582H19.9902L20.1963 0.970703ZM3.99023 2.96582C2.88566 2.96582 1.99023 3.86125 1.99023 4.96582V5.96582H21.9902V4.96582C21.9902 3.93017 21.203 3.07883 20.1943 2.97656L19.9902 2.96582H3.99023ZM1.99023 7.96582V16.9658C1.99023 18.0704 2.88566 18.9658 3.99023 18.9658H19.9902C21.0948 18.9658 21.9902 18.0704 21.9902 16.9658V7.96582H1.99023ZM17.9902 9.96582C18.5425 9.96582 18.9902 10.4135 18.9902 10.9658C18.9902 11.5181 18.5425 11.9658 17.9902 11.9658H5.99023C5.43795 11.9658 4.99023 11.5181 4.99023 10.9658C4.99023 10.4135 5.43795 9.96582 5.99023 9.96582H17.9902ZM11.9902 14.9658C12.5425 14.9658 12.9902 15.4135 12.9902 15.9658C12.9902 16.5181 12.5425 16.9658 11.9902 16.9658H5.99023C5.43795 16.9658 4.99023 16.5181 4.99023 15.9658C4.99023 15.4135 5.43795 14.9658 5.99023 14.9658H11.9902Z" />
</svg>
