<svg width="24" height="24" viewBox="0 0 24 24" fill="currentColor" xmlns="http://www.w3.org/2000/svg">
<path d="M12 0C5.372 0 0 5.373 0 12C0 18.627 5.372 24 12 24C18.627 24 24 18.627 24 12C24 5.373 18.627 0 12 0ZM17.773 8.522V10.728C16.67 10.836 15.705 10.475 14.581 9.795V13.921C14.581 19.163 8.869 20.801 6.573 17.044C5.097 14.626 6.001 10.384 10.734 10.214V12.54C10.374 12.598 9.988 12.689 9.636 12.81C8.583 13.166 7.986 13.834 8.152 15.012C8.471 17.268 12.608 17.936 12.264 13.527V5.27H14.548V5.266C14.776 7.228 15.87 8.397 17.773 8.522Z" />
</svg>
