<svg width="21" height="21" viewBox="0 0 21 21" fill="currentColor" xmlns="http://www.w3.org/2000/svg">
<path d="M10.5665 0.204118C9.14272 0.20153 7.73486 0.503981 6.43773 1.09111C6.39686 1.10973 6.36017 1.1364 6.32986 1.16952C6.29954 1.20264 6.27621 1.24153 6.26127 1.28388C6.24633 1.32622 6.24009 1.37115 6.24292 1.41596C6.24574 1.46078 6.25758 1.50456 6.27771 1.54469L6.87366 2.73785C6.91224 2.81467 6.97895 2.87366 7.05992 2.90252C7.14089 2.93139 7.22987 2.92792 7.30834 2.89283C8.33372 2.43609 9.44405 2.20123 10.5665 2.20364C12.0193 2.20291 13.4448 2.59808 14.6899 3.34667C15.9349 4.09526 16.9525 5.16898 17.6331 6.45244C18.3138 7.73589 18.6318 9.18056 18.5531 10.6312C18.4744 12.0818 18.0018 13.4836 17.1863 14.6859L16.1355 13.6338C16.0886 13.5877 16.0292 13.5564 15.9647 13.5438C15.9001 13.5313 15.8333 13.5381 15.7727 13.5634C15.712 13.5887 15.6601 13.6314 15.6236 13.686C15.587 13.7407 15.5674 13.8049 15.5672 13.8707V17.5371C15.5672 17.721 15.7147 17.871 15.8986 17.8722H19.565C19.6313 17.8725 19.6961 17.8531 19.7513 17.8165C19.8065 17.7798 19.8496 17.7275 19.875 17.6663C19.9004 17.6051 19.907 17.5378 19.894 17.4728C19.881 17.4078 19.8489 17.3482 19.8019 17.3015L18.6201 16.1197C19.8855 14.407 20.5682 12.3337 20.5679 10.2043C20.5666 7.55213 19.5125 5.00901 17.6371 3.13367C15.7618 1.25834 13.2187 0.205453 10.5665 0.204118ZM1.56428 2.53501C1.49839 2.5352 1.43402 2.55488 1.37929 2.59158C1.32456 2.62828 1.28191 2.68036 1.25672 2.74125C1.23153 2.80214 1.22492 2.86912 1.23772 2.93376C1.25053 2.9984 1.28217 3.05781 1.32867 3.1045L2.5105 4.28632C1.246 6.00016 0.564594 8.07442 0.56641 10.2043C0.567719 11.8763 0.988006 13.5214 1.78887 14.9892C2.58974 16.457 3.74565 17.7007 5.15099 18.6067C6.55633 19.5127 8.1663 20.052 9.8338 20.1755C11.5013 20.299 13.1732 20.0027 14.6966 19.3136C14.7374 19.2949 14.7739 19.2681 14.8041 19.235C14.8343 19.2018 14.8575 19.1629 14.8723 19.1205C14.8871 19.0782 14.8933 19.0333 14.8904 18.9886C14.8875 18.9438 14.8756 18.9001 14.8554 18.86L14.2582 17.6681C14.2196 17.5916 14.1531 17.5329 14.0724 17.504C13.9918 17.4752 13.9031 17.4784 13.8247 17.5132C12.7995 17.9703 11.6891 18.2056 10.5665 18.2036C9.11365 18.2049 7.68788 17.8102 6.44248 17.0619C5.19708 16.3137 4.17914 15.2401 3.49807 13.9568C2.817 12.6734 2.49855 11.2287 2.57695 9.77791C2.65535 8.32714 3.12764 6.92515 3.94305 5.72265L4.99761 6.7747C5.04444 6.82085 5.10386 6.85214 5.1684 6.86466C5.23294 6.87717 5.29975 6.87036 5.36043 6.84506C5.42111 6.81976 5.47298 6.77711 5.50952 6.72246C5.54607 6.6678 5.56566 6.60358 5.56585 6.53783V2.87141C5.56585 2.78286 5.53067 2.69793 5.46806 2.63532C5.40544 2.5727 5.32051 2.53752 5.23196 2.53752L1.56428 2.53501ZM11.2154 4.53579C11.162 4.53874 11.1101 4.55447 11.0641 4.58166C11.018 4.60885 10.9792 4.64669 10.9508 4.69202L6.95178 11.0257C6.92016 11.076 6.90254 11.1339 6.90074 11.1933C6.89894 11.2527 6.91301 11.3114 6.94152 11.3636C6.97003 11.4157 7.01193 11.4593 7.0629 11.4898C7.11387 11.5204 7.17207 11.5367 7.23149 11.5373H9.87232L9.56741 15.5124C9.54221 15.8563 9.99327 16.0063 10.1797 15.7165L14.1813 9.38151C14.2131 9.33093 14.2307 9.27275 14.2324 9.21304C14.234 9.15333 14.2196 9.09427 14.1906 9.04202C14.1617 8.98977 14.1192 8.94624 14.0677 8.91598C14.0162 8.88572 13.9576 8.86984 13.8978 8.86998H11.2583L11.5657 4.89613C11.5697 4.84876 11.5635 4.80108 11.5476 4.7563C11.5316 4.71152 11.5063 4.67068 11.4732 4.63654C11.4401 4.60239 11.4001 4.57573 11.3559 4.55835C11.3116 4.54097 11.2629 4.53328 11.2154 4.53579Z" />
</svg>
