<svg width="17" height="21" viewBox="0 0 17 21" fill="currentColor" xmlns="http://www.w3.org/2000/svg">
<path d="M11.7822 12.228C12.9605 12.2293 14.1131 12.4469 14.9463 13.228C15.7793 14.009 16.0113 14.9566 16.0127 16.061V20.228H13.8799V16.061C13.8798 15.6191 13.679 15.0406 13.3457 14.728C13.0122 14.4155 12.2537 14.228 11.7822 14.228H4.24121C3.76983 14.2281 3.11562 14.4156 2.78223 14.728C2.4489 15.0406 2.14662 15.6191 2.14648 16.061V20.228H0.0126953V16.061C0.0141472 14.9566 0.246096 14.009 1.0791 13.228C1.91223 12.447 3.063 12.2294 4.24121 12.228H11.7822ZM8.0127 0.228027C10.7741 0.228027 13.0127 2.4666 13.0127 5.22803C13.0127 7.98945 10.7741 10.228 8.0127 10.228C5.25127 10.228 3.0127 7.98945 3.0127 5.22803C3.0127 2.4666 5.25127 0.228027 8.0127 0.228027ZM8.0127 2.22803C6.35584 2.22803 5.0127 3.57117 5.0127 5.22803C5.0127 6.88488 6.35584 8.22803 8.0127 8.22803C9.66955 8.22803 11.0127 6.88488 11.0127 5.22803C11.0127 3.57117 9.66955 2.22803 8.0127 2.22803Z" />
</svg>
