<svg width="16" height="20" viewBox="0 0 16 20" fill="currentColor" xmlns="http://www.w3.org/2000/svg">
<path d="M16 20H13.8667V15.8333C13.8667 15.3913 13.6667 14.8126 13.3333 14.5C12.9999 14.1874 12.2412 14 11.7697 14H4.22876C3.75727 14 3.10254 14.1874 2.76915 14.5C2.43575 14.8126 2.13333 15.3913 2.13333 15.8333V20H0V15.8333C0.00141143 14.7287 0.233477 13.7811 1.06667 13C1.89986 12.2189 3.05046 12.0013 4.22876 12H11.7697C12.948 12.0013 14.1001 12.2189 14.9333 13C15.7665 13.7811 15.9986 14.7287 16 15.8333V20Z M13 5A5 5 0 1 1 3 5A5 5 0 1 1 13 5Z M11 5A3 3 0 1 0 5 5A3 3 0 1 0 11 5Z"/>
</svg>
